<svg xmlns="http://www.w3.org/2000/svg" viewBox="0 0 128 128" role="img" aria-label="Premium Maxi Taxi Melbourne">
  <defs>
    <linearGradient id="pmtFavGold" x1="17" x2="111" y1="17" y2="112" gradientUnits="userSpaceOnUse">
      <stop stop-color="#FFF1B8"/>
      <stop offset=".38" stop-color="#D4AF37"/>
      <stop offset="1" stop-color="#9D7418"/>
    </linearGradient>
    <linearGradient id="pmtFavBlack" x1="0" x2="128" y1="0" y2="128" gradientUnits="userSpaceOnUse">
      <stop stop-color="#282828"/>
      <stop offset="1" stop-color="#080808"/>
    </linearGradient>
  </defs>
  <rect width="128" height="128" rx="28" fill="url(#pmtFavBlack)"/>
  <path fill="#D4AF37" d="M37 21h54c7.2 0 13 5.8 13 13v4H24v-4c0-7.2 5.8-13 13-13Z"/>
  <path fill="url(#pmtFavGold)" d="M19 65c0-15 12-27 27-27h35c14.5 0 26.5 10.8 28.2 25.2l3.8 32.3c.6 5.1-3.5 9.6-8.7 9.6H19.2c-5.6 0-10.2-4.6-10.2-10.2V75.5C9 69.7 13.2 65 19 65Z"/>
  <path fill="#111111" d="M30 59c0-5.5 4.5-10 10-10h15v22H30V59Zm32-10h20c6.4 0 12.3 3.7 15.1 9.5L103 71H62V49Z"/>
  <path fill="#111111" d="M27 77h70v8H27zm36 8h5v19h-5z"/>
  <path fill="#F7E7A5" d="M15 84h16v9H15zm83 0h13v9H98z"/>
  <circle cx="36" cy="105" r="11" fill="#111111"/>
  <circle cx="36" cy="105" r="4" fill="#F7E7A5"/>
  <circle cx="92" cy="105" r="11" fill="#111111"/>
  <circle cx="92" cy="105" r="4" fill="#F7E7A5"/>
  <path fill="#111111" d="M46 87h12v9H46zm30 0h12v9H76z"/>
</svg>
