<svg xmlns="http://www.w3.org/2000/svg" viewBox="0 0 128 128" role="img" aria-label="Premium Maxi Taxi Melbourne">
  <rect width="128" height="128" rx="28" fill="#111111"/>
  <path fill="#D4AF37" d="M30 44c2-8 8-13 17-13h34c9 0 15 5 17 13l4 15h6c4 0 7 3 7 7v26h-8c-2 8-8 13-17 13s-15-5-17-13H55c-2 8-8 13-17 13s-15-5-17-13h-8V66c0-4 3-7 7-7h6l4-15Z"/>
  <path fill="#111111" d="M41 45c1-3 4-5 8-5h30c4 0 7 2 8 5l3 14H38l3-14ZM31 74h66v9H31z"/>
  <circle cx="38" cy="91" r="7" fill="#111111"/>
  <circle cx="90" cy="91" r="7" fill="#111111"/>
  <path fill="#F7E7A5" d="M50 23h28v10H50z"/>
  <path fill="#F7E7A5" d="M26 67h11v7H26zm65 0h11v7H91z"/>
  <path fill="#111111" d="M48 68h8v7h-8zm12 0h8v7h-8zm12 0h8v7h-8z"/>
</svg>
