<svg xmlns="http://www.w3.org/2000/svg" viewBox="0 0 256 256" role="img" aria-labelledby="markTitle markDesc">
  <title id="markTitle">Premium Maxi Taxi Melbourne</title>
  <desc id="markDesc">Compact taxi mark in black and gold</desc>
  <defs>
    <linearGradient id="pmtMarkGold" x1="48" x2="216" y1="44" y2="220" gradientUnits="userSpaceOnUse">
      <stop stop-color="#F3D878"/>
      <stop offset=".45" stop-color="#D4AF37"/>
      <stop offset="1" stop-color="#A87C1B"/>
    </linearGradient>
  </defs>
  <rect width="256" height="256" rx="56" fill="#111111"/>
  <path fill="url(#pmtMarkGold)" d="M58 125c7-31 30-50 61-50h18c31 0 54 19 61 50l7 32h11c10 0 18 8 18 18v48h-26c-6 19-22 31-44 31s-38-12-44-31h-8c-6 19-22 31-44 31s-38-12-44-31H-2v-48c0-10 8-18 18-18h11l7-32Z"/>
  <path fill="#111111" d="M83 124c4-15 13-23 28-23h34c15 0 24 8 28 23l6 26H77l6-26Zm-27 56h112v24H56z"/>
  <path fill="#111111" d="M177 180h28v24h-28z"/>
  <circle cx="68" cy="223" r="17" fill="#111111"/>
  <circle cx="164" cy="223" r="17" fill="#111111"/>
  <path fill="#F7E7A5" d="M87 40h82v28H87z"/>
  <path fill="#F7E7A5" d="M53 166h28v18H53zm122 0h28v18h-28z"/>
  <path fill="#111111" d="M105 166h16v18h-16zm30 0h16v18h-16z"/>
</svg>
